<?xml version="1.0" encoding="UTF-8"?><svg id="a" xmlns="http://www.w3.org/2000/svg" viewBox="0 0 48 48"><defs><style>.b{fill:#000;stroke-width:0px;}</style></defs><path class="b" d="M31.2497,29.4685c-.0166.9938-.8481,1.7815-1.8421,1.7815h-7.4712c-.2905,0-.4878-.2953-.3764-.5637l.0025-.0061c.4913-1.1862,1.2885-2.1871,2.3064-2.9173.1266-.0908.2794-.1379.4352-.1379h5.1333c1.0113,0,1.8292.8283,1.8122,1.8435Z"/><path class="b" d="M26.0635,16.75c.2905,0,.4878.2953.3764.5637l-.0025.0061c-.4913,1.1862-1.2885,2.1871-2.3064,2.9173-.1266.0908-.2794.1379-.4352.1379h-5.1035c-.9939,0-1.8255-.7877-1.8421-1.7815-.0169-1.0152.8009-1.8435,1.8122-1.8435h7.501Z"/><path class="b" d="M18.5622,31.25c-.2312,0-.466-.0445-.6928-.1384-.9248-.383-1.3639-1.4432-.9809-2.368.5891-1.4222,1.4335-2.6973,2.5098-3.7897,1.115-1.1317,2.4299-2.016,3.9082-2.6283,2.032-.8417,3.6147-2.4243,4.4563-4.4563.383-.9248,1.4433-1.3639,2.368-.9809.9248.383,1.3639,1.4432.9809,2.368-.5891,1.4222-1.4335,2.6973-2.5098,3.7897-1.115,1.1317-2.4299,2.016-3.9082,2.6283-2.032.8417-3.6147,2.4243-4.4563,4.4563-.2891.6979-.964,1.1193-1.6751,1.1193Z"/></svg>