<?xml version="1.0" encoding="UTF-8"?><svg id="b" xmlns="http://www.w3.org/2000/svg" width="16" height="16"><defs><style>.d{fill:#000;stroke-width:0px;}</style></defs><g id="c"><path class="d" d="M13.4998,11.8413c-.0154.9253-.7896,1.6587-1.715,1.6587h-6.956c-.2705,0-.4541-.275-.3505-.5248l.0024-.0057c.4574-1.1044,1.1996-2.0362,2.1473-2.7161.1179-.0846.2601-.1284.4052-.1284h4.7793c.9416,0,1.703.7711,1.6873,1.7163Z"/><path class="d" d="M8.6712,0c.2705,0,.4541.275.3505.5248l-.0024.0057c-.4574,1.1044-1.1996,2.0362-2.1473,2.7161-.1179.0846-.2601.1284-.4052.1284H1.7153c-.9254,0-1.6996-.7334-1.715-1.6587C-.0155.7711.7459,0,1.6875,0h6.9837Z"/><path class="d" d="M1.6872,13.5c-.2152,0-.4339-.0414-.6451-.1289-.861-.3566-1.2699-1.3437-.9132-2.2047.5485-1.3241,1.3346-2.5112,2.3367-3.5283,1.0381-1.0537,2.2623-1.877,3.6387-2.4471,1.8919-.7837,3.3654-2.2571,4.149-4.149.3566-.861,1.3437-1.2698,2.2047-.9132.861.3566,1.2699,1.3437.9132,2.2047-.5485,1.3241-1.3346,2.5112-2.3367,3.5283-1.0381,1.0537-2.2623,1.877-3.6387,2.4471-1.8919.7837-3.3654,2.2571-4.149,4.149-.2691.6498-.8975,1.0421-1.5596,1.0421Z"/></g></svg>